Coordinates
version=1
nRows=24
nColumns=26
inDegrees=yes

Units are S.I. units (second, meters, Newtons, ...)
If the header above contains a line with 'inDegrees', this indicates whether rotational values are in degrees (yes) or radians (no).

endheader
time	pelvis_tilt	pelvis_list	pelvis_rotation	pelvis_tx	pelvis_ty	pelvis_tz	hip_flexion_r	hip_adduction_r	hip_rotation_r	knee_angle_r	knee_angle_r_beta	hip_flexion_l	hip_adduction_l	hip_rotation_l	knee_angle_l	knee_angle_l_beta	lumbar_extension	lumbar_bending	lumbar_rotation	ankle_angle_r	subtalar_angle_r	mtp_angle_r	ankle_angle_l	subtalar_angle_l	mtp_angle_l
      0.40000000	     -1.27276322	     -7.10637018	     12.43672184	     -0.85064402	      0.87815516	      0.30839350	     15.19871642	     10.10444875	     -7.25762251	     18.71475041	      0.32663401	     26.45871539	     -8.66219331	      7.02167548	     72.57101945	      1.26660323	     -4.04183990	      6.39390402	     -1.91053711	      9.90871212	    -10.36051559	      0.00000000	    -10.19617709	    -12.60459099	      0.00000000
      0.41000000	     -1.16639444	     -6.66103830	     11.10828918	     -0.84010492	      0.87987247	      0.30898635	     13.69275420	     10.09961257	     -6.20595636	     17.97464427	      0.31371672	     27.40878520	     -8.41410325	      5.74795883	     72.24044257	      1.26083358	     -4.36326242	      6.12339630	     -0.86502208	     10.53834586	     -9.54698959	      0.00000000	     -9.43762313	    -13.62503149	      0.00000000
      0.42000000	     -1.11687394	     -6.29482481	      9.80749264	     -0.82967371	      0.88125379	      0.30948675	     12.28438441	     10.07004117	     -5.28885433	     17.24193588	      0.30092855	     28.41666980	     -8.24123611	      4.60390804	     71.68156497	      1.25107932	     -4.61212071	      5.94892306	      0.07104456	     11.20784705	     -8.60689742	      0.00000000	     -8.63182250	    -14.20580137	      0.00000000
      0.43000000	     -1.27406805	     -6.04430432	      8.82748252	     -0.81943978	      0.88204097	      0.30946038	     11.15214451	      9.98737208	     -4.80079094	     16.45198750	      0.28714135	     29.76564647	     -7.95758779	      3.89424590	     70.96839275	      1.23863212	     -4.54388359	      5.91750112	      0.53619629	     11.71076599	     -7.88238916	      0.00000000	     -7.91098261	    -14.48949571	      0.00000000
      0.44000000	     -1.01992316	     -5.60772815	      7.31921141	     -0.80906173	      0.88324450	      0.31002298	      9.60664219	      9.78788479	     -3.81175647	     15.95190657	      0.27841329	     30.28869301	     -7.93556400	      2.55723869	     69.81079750	      1.21842827	     -5.10132516	      5.72754029	      1.93354182	     12.70758581	     -6.48849062	      0.00000000	     -6.94701360	    -14.36468592	      0.00000000
      0.45000000	     -0.95642135	     -5.31381404	      6.13968908	     -0.79884100	      0.88385487	      0.31012841	      8.32658402	      9.58794809	     -3.29013836	     15.39393318	      0.26867482	     31.11425681	     -7.76840471	      1.79311884	     68.48652339	      1.19531533	     -5.36186634	      5.68999289	      2.75965139	     13.57709050	     -5.22369196	      0.00000000	     -6.06607512	    -14.01637277	      0.00000000
      0.46000000	     -0.88536066	     -5.07733175	      5.01514394	     -0.78865653	      0.88421420	      0.31020087	      7.10568045	      9.39834141	     -2.85497276	     14.92309314	      0.26045711	     31.86523247	     -7.62653887	      1.21183867	     66.90085393	      1.16764017	     -5.63569247	      5.69317463	      3.55097321	     14.46331456	     -3.98924287	      0.00000000	     -5.17361873	    -13.42104477	      0.00000000
      0.47000000	     -1.02234091	     -5.17978178	      4.21102711	     -0.77879585	      0.88390272	      0.30989028	      6.34841305	      9.52356724	     -2.77565801	     14.69310414	      0.25644304	     32.98370730	     -7.51405820	      1.36766189	     65.14112814	      1.13692716	     -5.63065475	      6.13345269	      3.68965057	     14.85964453	     -3.78006296	      0.00000000	     -4.84941235	    -13.06497548	      0.00000000
      0.48000000	     -0.74654584	     -4.77974272	      2.91772609	     -0.76826817	      0.88416264	      0.31018443	      4.78502569	      9.12002209	     -1.91013987	     14.08903704	      0.24590008	     33.12115775	     -7.35757344	      0.66744782	     62.95359721	      1.09874755	     -6.15881013	      5.88844588	      5.00492983	     16.07038128	     -1.98135832	      0.00000000	     -3.45666372	    -11.80015400	      0.00000000
      0.49000000	     -0.76236474	     -4.73577459	      1.99415192	     -0.75808499	      0.88367438	      0.31006758	      3.77924505	      9.04902743	     -1.49067482	     13.73191276	      0.23966709	     33.72125897	     -7.17639193	      0.85243150	     60.59515277	      1.05758493	     -6.31604204	      6.08457337	      5.54112600	     16.82422516	     -1.18927737	      0.00000000	     -2.77983366	    -10.96841973	      0.00000000
      0.50000000	     -0.92009436	     -5.01287162	      1.24825003	     -0.74800561	      0.88268805	      0.30987722	      3.11190231	      9.33450844	     -1.29046958	     13.64482675	      0.23814715	     34.49653477	     -7.20843324	      1.45805227	     58.05398213	      1.01323313	     -6.28025115	      6.65877025	      5.70726888	     17.31884562	     -1.03460995	      0.00000000	     -2.41420586	    -10.39364709	      0.00000000
      0.51000000	     -0.67676269	     -4.76794125	      0.23492224	     -0.73769155	      0.88230310	      0.31008696	      1.81354452	      9.03464689	     -0.39653212	     13.33665324	      0.23276851	     34.36805434	     -6.89473426	      1.69752691	     55.00304378	      0.95998421	     -6.80344149	      6.49025530	      6.72131096	     18.22789094	     -0.12826313	      0.00000000	     -1.50900575	     -9.34138735	      0.00000000
      0.52000000	     -0.78183229	     -4.91125445	     -0.48586169	     -0.72759414	      0.88114006	      0.31009610	      1.07272964	      9.16213318	      0.12029885	     13.25308326	      0.23130994	     34.72262428	     -6.74097734	      2.67248760	     51.86329280	      0.90518522	     -6.90031392	      6.77652380	      7.13662821	     18.85506191	      0.13863419	      0.00000000	     -1.04401316	     -8.64413358	      0.00000000
      0.53000000	     -1.01114751	     -5.20484294	     -1.11683429	     -0.71758995	      0.87964236	      0.31004373	      0.56590532	      9.45510474	      0.64481780	     13.32997161	      0.23265189	     35.12998828	     -6.71488995	      3.92024250	     48.54290180	      0.84723346	     -6.85671229	      7.27350360	      7.38877364	     19.34395755	      0.24524193	      0.00000000	     -0.60760970	     -7.92994358	      0.00000000
      0.54000000	     -1.23092407	     -5.37056017	     -1.70568071	     -0.70757174	      0.87808660	      0.31010000	      0.05756456	      9.62498950	      1.25711689	     13.43527716	      0.23448982	     35.32119915	     -6.59193662	      5.25826127	     44.90281111	      0.78370190	     -6.82850830	      7.53491533	      7.77954056	     19.92179737	      0.15087357	      0.00000000	     -0.28339634	     -7.28694252	      0.00000000
      0.55000000	     -1.44887780	     -5.54536795	     -2.25053515	     -0.69767725	      0.87646337	      0.31018364	     -0.42765296	      9.82442935	      1.97818636	     13.55307263	      0.23654574	     35.37240292	     -6.51815202	      6.67915507	     40.99267516	      0.71545715	     -6.85327090	      7.77943083	      8.11486099	     20.34094094	     -0.24601470	      0.00000000	     -0.38247910	     -7.14669148	      0.00000000
      0.56000000	     -1.87749789	     -5.89928431	     -2.61628981	     -0.68784117	      0.87432761	      0.31019829	     -0.59760235	     10.22876212	      2.43862221	     13.83350800	      0.24144026	     35.69105996	     -6.65752171	      8.35609738	     37.20140413	      0.64928699	     -6.61502171	      8.21683233	      8.24471578	     20.78870540	     -0.52928427	      0.00000000	     -0.02531248	     -6.21678885	      0.00000000
      0.57000000	     -2.32063511	     -6.23921322	     -2.89404315	     -0.67801600	      0.87206497	      0.31018542	     -0.71850330	     10.63581127	      2.89237798	     14.17376657	      0.24737889	     35.96152234	     -6.85864970	      9.96583523	     33.35130161	      0.58209002	     -6.34987474	      8.59535465	      8.33757150	     21.17968561	     -0.93947522	      0.00000000	      0.15985791	     -5.35624891	      0.00000000
      0.58000000	     -2.79188760	     -6.54144292	     -3.18925734	     -0.66823685	      0.86972327	      0.31002093	     -0.79308939	     10.99377472	      3.36620998	     14.50456591	      0.25315243	     36.17344201	     -7.09397853	     11.53261905	     29.46789467	      0.51431179	     -6.09067156	      8.98396957	      8.42238845	     21.48881741	     -1.65317482	      0.00000000	     -0.00579879	     -4.87018994	      0.00000000
      0.59000000	     -3.23126280	     -6.90033699	     -3.36636443	     -0.65819040	      0.86729554	      0.30970933	     -0.92489194	     11.39225421	      3.61820308	     14.84824603	      0.25915078	     36.44291140	     -7.48111831	     12.73340240	     25.95266220	      0.45295941	     -5.82357643	      9.41704655	      8.38114070	     21.85196637	     -1.99092789	      0.00000000	      0.27192389	     -3.64225308	      0.00000000
      0.60000000	     -3.62670711	     -7.18025207	     -3.56384416	     -0.64802090	      0.86492138	      0.30926936	     -1.09365269	     11.66879432	      3.77777392	     15.21427685	      0.26553922	     36.67495617	     -7.85596238	     13.68761317	     22.73887049	      0.39686816	     -5.61786999	      9.75983927	      8.33424512	     22.21275151	     -2.28548880	      0.00000000	      0.56042655	     -2.38074009	      0.00000000
      0.61000000	     -3.90459944	     -7.36978871	     -3.70636644	     -0.63758687	      0.86270087	      0.30853669	     -1.38615512	     11.80775900	      3.90230464	     15.62400330	      0.27269030	     36.83467446	     -8.13018695	     14.31751366	     19.93806997	      0.34798497	     -5.48436613	     10.00661127	      8.34150370	     22.55358652	     -2.51518419	      0.00000000	      0.83155619	     -1.23872768	      0.00000000
      0.62000000	     -4.13878919	     -7.49646955	     -3.88484042	     -0.62682561	      0.86057603	      0.30777594	     -1.76255760	     11.84928697	      3.93531980	     15.99470165	      0.27916021	     36.98800847	     -8.35677866	     14.73308644	     17.66709528	      0.30834898	     -5.35473278	     10.16195793	      8.32609885	     22.90026861	     -2.66023235	      0.00000000	      1.23994625	     -0.30349223	      0.00000000
      0.63000000	     -4.01724447	     -7.36145345	     -4.21312271	     -0.61580879	      0.85913312	      0.30690891	     -2.49194460	     11.50398924	      3.96385262	     16.49766478	      0.28793857	     36.67032050	     -8.41892544	     14.53862156	     15.75647061	      0.27500229	     -5.67127063	      9.99206243	      8.62385386	     23.32851516	     -2.41640887	      0.00000000	      1.46800030	      0.36597865	      0.00000000
